<svg width="26" height="26" viewBox="0 0 26 26" fill="none" xmlns="http://www.w3.org/2000/svg">
<path d="M6.68441 2.79459H8.30394C8.52043 2.79459 8.69592 2.97068 8.69592 3.1879V5.40287H10.9034C11.1199 5.40287 11.2954 5.57896 11.2954 5.79618V7.42118C11.2954 7.6384 11.1199 7.81449 10.9034 7.81449H8.69592V10.0295C8.69592 10.2467 8.52043 10.4228 8.30394 10.4228H6.68441C6.46792 10.4228 6.29243 10.2467 6.29243 10.0295V7.81449H4.08492C3.86843 7.81449 3.69293 7.6384 3.69293 7.42118V5.79618C3.69293 5.57896 3.86843 5.40287 4.08492 5.40287H6.29243V3.1879C6.29243 2.97068 6.46792 2.79459 6.68441 2.79459Z" fill="#2781CF"/>
<path fill-rule="evenodd" clip-rule="evenodd" d="M16.2778 14.8786C16.2778 15.7275 15.592 16.4156 14.7459 16.4156C13.8999 16.4156 13.2141 15.7275 13.2141 14.8786C13.2141 14.6145 13.2805 14.366 13.3974 14.1489L12.0949 12.8344C12.0949 12.8344 5.4414 20.1003 5.28587 20.1935C5.13035 20.2866 4.84802 20.3229 4.72254 20.1935C4.6455 20.114 4.26989 19.7122 4.15197 19.588C4.03405 19.4638 4.06945 19.1878 4.15197 19.1006C4.23449 19.0135 11.221 11.5133 11.3315 11.4578C11.686 11.28 11.9814 11.1939 12.6364 11.3854C12.7123 11.4075 14.6015 13.3483 14.6015 13.3483C14.6491 13.3438 14.6972 13.3416 14.7459 13.3416C14.7597 13.3416 14.7769 13.3421 14.7872 13.3421L19.3049 8.48209C19.1057 8.15686 18.9907 7.77402 18.9907 7.36425C18.9907 6.18383 19.9444 5.22691 21.1209 5.22691C22.2973 5.22691 23.251 6.18383 23.251 7.36425C23.251 8.54467 22.2973 9.50159 21.1209 9.50159C20.8904 9.50159 20.6686 9.46488 20.4607 9.39696L16.0945 14.1489C16.2114 14.366 16.2778 14.6145 16.2778 14.8786ZM21.126 8.15605C21.559 8.15605 21.91 7.80387 21.91 7.36943C21.91 6.93499 21.559 6.5828 21.126 6.5828C20.6931 6.5828 20.3421 6.93499 20.3421 7.36943C20.3421 7.80387 20.6931 8.15605 21.126 8.15605Z" fill="#2781CF"/>
<path d="M19.8057 12.3065H22.7146C22.9311 12.3065 23.1066 12.4826 23.1066 12.6998V23.992C23.1066 24.2093 22.9311 24.3854 22.7146 24.3854H19.8057C19.5892 24.3854 19.4137 24.2093 19.4137 23.992V12.6998C19.4137 12.4826 19.5892 12.3065 19.8057 12.3065Z" fill="#2781CF"/>
<path d="M7.14861 19.6449H10.0576C10.2741 19.6449 10.4496 19.821 10.4496 20.0382V23.992C10.4496 24.2093 10.2741 24.3854 10.0576 24.3854H7.14861C6.93212 24.3854 6.75662 24.2093 6.75662 23.992V20.0382C6.75662 19.821 6.93212 19.6449 7.14861 19.6449Z" fill="#2781CF"/>
<path d="M13.4336 17.4713H16.3397C16.5562 17.4713 16.7317 17.6474 16.7317 17.8647V23.992C16.7317 24.2093 16.5562 24.3854 16.3397 24.3854H13.4336C13.2171 24.3854 13.0416 24.2093 13.0416 23.992V17.8647C13.0416 17.6474 13.2171 17.4713 13.4336 17.4713Z" fill="#2781CF"/>
</svg>
