<svg width="100" height="26" viewBox="0 0 100 26" fill="none" xmlns="http://www.w3.org/2000/svg">
<path d="M42.087 8.07325V18.3201H40.1529V12.9793L40.2612 9.98288H40.2303L37.3987 18.3201H35.6502L32.8341 9.98288H32.8031L32.9114 12.9793V18.3201H30.9773V8.07325H34.0719L35.9132 13.6624L36.5631 15.9757H36.5941L37.2594 13.6779L39.0852 8.07325H42.087Z" fill="#FAFAFA"/>
<path d="M47.2669 18.4753C46.452 18.4753 45.7402 18.3149 45.1316 17.994C44.5333 17.6732 44.0691 17.2126 43.739 16.6123C43.409 16.0119 43.2439 15.2874 43.2439 14.4387C43.2439 13.59 43.409 12.8654 43.739 12.2651C44.0691 11.6648 44.5282 11.2042 45.1162 10.8834C45.7145 10.5625 46.3953 10.4021 47.1586 10.4021C47.9426 10.4021 48.6079 10.5625 49.1547 10.8834C49.7014 11.1939 50.1192 11.6234 50.408 12.172C50.6968 12.7102 50.8412 13.326 50.8412 14.0195C50.8412 14.2265 50.8361 14.4232 50.8258 14.6095C50.8154 14.7958 50.8 14.9614 50.7793 15.1063H44.6055V13.6314H49.8509L48.8297 14.004C48.8297 13.3519 48.6801 12.8499 48.381 12.498C48.0922 12.1461 47.6795 11.9701 47.1431 11.9701C46.7512 11.9701 46.4107 12.0633 46.1219 12.2496C45.8434 12.4359 45.6319 12.7154 45.4875 13.088C45.3431 13.4502 45.2709 13.9108 45.2709 14.4697C45.2709 15.0183 45.3483 15.4737 45.503 15.836C45.668 16.1879 45.895 16.4518 46.1838 16.6278C46.483 16.8037 46.8388 16.8917 47.2515 16.8917C47.7053 16.8917 48.0715 16.8037 48.35 16.6278C48.6286 16.4518 48.8452 16.2086 48.9999 15.8981L50.6865 16.5502C50.5215 16.9538 50.2687 17.3006 49.9283 17.5904C49.5982 17.8802 49.2011 18.1027 48.7369 18.258C48.283 18.4029 47.793 18.4753 47.2669 18.4753Z" fill="#FAFAFA"/>
<path d="M54.7885 18.4753C54.1489 18.4753 53.5764 18.3149 53.0709 17.994C52.5758 17.6732 52.1838 17.2126 51.895 16.6123C51.6165 16.0119 51.4772 15.2926 51.4772 14.4542C51.4772 13.5951 51.6268 12.8654 51.9259 12.2651C52.2251 11.6545 52.6274 11.1939 53.1328 10.8834C53.6486 10.5625 54.2263 10.4021 54.8658 10.4021C55.5466 10.4021 56.1088 10.5987 56.5524 10.992C56.996 11.3854 57.2848 11.8925 57.4189 12.5135L57.2178 12.7619V7.15724H59.3376V18.3201H57.4344L57.2951 15.9602L57.5582 16.0844C57.486 16.5709 57.3209 16.9952 57.063 17.3575C56.8051 17.7094 56.4802 17.9837 56.0882 18.1803C55.6962 18.377 55.263 18.4753 54.7885 18.4753ZM55.4074 16.8451C55.7787 16.8451 56.0985 16.752 56.3667 16.5657C56.6349 16.369 56.8412 16.0844 56.9857 15.7118C57.1404 15.3392 57.2178 14.8941 57.2178 14.3766C57.2178 13.8798 57.1455 13.4606 57.0011 13.119C56.8567 12.7671 56.6504 12.498 56.3822 12.3117C56.114 12.1254 55.7994 12.0322 55.4383 12.0322C54.8607 12.0322 54.4068 12.2393 54.0767 12.6533C53.7569 13.0569 53.597 13.6521 53.597 14.4387C53.597 15.2253 53.7569 15.8256 54.0767 16.2397C54.3965 16.6433 54.84 16.8451 55.4074 16.8451Z" fill="#FAFAFA"/>
<path d="M60.9626 18.3201V8.07325H65.4344C66.6722 8.07325 67.5851 8.31648 68.1731 8.80295C68.7611 9.28941 69.0551 9.97771 69.0551 10.8678C69.0551 11.4164 68.89 11.9029 68.56 12.3272C68.2299 12.7516 67.745 13.0207 67.1055 13.1346V13.1501C67.8172 13.2536 68.364 13.5227 68.7456 13.9574C69.1273 14.3921 69.3181 14.9096 69.3181 15.51C69.3181 16.3897 68.9984 17.078 68.3588 17.5748C67.7296 18.0717 66.8063 18.3201 65.5891 18.3201H60.9626ZM63.036 16.7054H65.4034C65.9811 16.7054 66.4092 16.5864 66.6877 16.3483C66.9662 16.1103 67.1055 15.7791 67.1055 15.3547C67.1055 14.92 66.9662 14.5888 66.6877 14.3611C66.4092 14.1334 65.9811 14.0195 65.4034 14.0195H63.036V16.7054ZM63.036 12.3738H65.1559C66.2802 12.3738 66.8424 11.9339 66.8424 11.0541C66.8424 10.1744 66.2802 9.73447 65.1559 9.73447H63.036V12.3738Z" fill="#FAFAFA"/>
<path d="M73.8963 10.4021C74.6802 10.4021 75.3662 10.5625 75.9542 10.8834C76.5525 11.2042 77.0167 11.6648 77.3468 12.2651C77.6872 12.8654 77.8574 13.59 77.8574 14.4387C77.8574 15.2771 77.6872 16.0016 77.3468 16.6123C77.0167 17.2126 76.5525 17.6732 75.9542 17.994C75.3662 18.3149 74.6802 18.4753 73.8963 18.4753C73.1226 18.4753 72.4366 18.3149 71.8383 17.994C71.24 17.6732 70.7707 17.2126 70.4303 16.6123C70.1002 16.0016 69.9351 15.2771 69.9351 14.4387C69.9351 13.59 70.1002 12.8654 70.4303 12.2651C70.7707 11.6648 71.24 11.2042 71.8383 10.8834C72.4366 10.5625 73.1226 10.4021 73.8963 10.4021ZM73.8963 11.9857C73.5043 11.9857 73.169 12.0788 72.8905 12.2651C72.6223 12.4411 72.416 12.7102 72.2716 13.0725C72.1272 13.4347 72.055 13.8901 72.055 14.4387C72.055 14.9873 72.1272 15.4427 72.2716 15.8049C72.416 16.1672 72.6223 16.4415 72.8905 16.6278C73.169 16.8037 73.5043 16.8917 73.8963 16.8917C74.2779 16.8917 74.6029 16.8037 74.8711 16.6278C75.1496 16.4415 75.3611 16.1672 75.5055 15.8049C75.6499 15.4427 75.7221 14.9873 75.7221 14.4387C75.7221 13.8901 75.6499 13.4347 75.5055 13.0725C75.3611 12.7102 75.1496 12.4411 74.8711 12.2651C74.6029 12.0788 74.2779 11.9857 73.8963 11.9857Z" fill="#FAFAFA"/>
<path d="M83.222 13.3674C83.222 12.9224 83.0931 12.5756 82.8352 12.3272C82.5876 12.0788 82.2575 11.9546 81.8449 11.9546C81.4632 11.9546 81.128 12.0529 80.8391 12.2496C80.5503 12.4463 80.3388 12.7723 80.2047 13.2277L78.3944 12.6688C78.5697 11.9857 78.9514 11.4371 79.5394 11.0231C80.1377 10.6091 80.9371 10.4021 81.9377 10.4021C82.6185 10.4021 83.2117 10.5107 83.7171 10.7281C84.2226 10.9351 84.6146 11.2508 84.8931 11.6752C85.1819 12.0995 85.3263 12.6326 85.3263 13.2743V16.426C85.3263 16.8193 85.512 17.0159 85.8834 17.0159C86.0587 17.0159 86.2238 16.99 86.3785 16.9383L86.2547 18.258C85.9865 18.3925 85.6513 18.4598 85.249 18.4598C84.8879 18.4598 84.563 18.3977 84.2742 18.2735C83.9853 18.1493 83.7584 17.963 83.5934 17.7146C83.4283 17.4558 83.3458 17.135 83.3458 16.752V16.6899L83.7171 16.6278C83.6553 17.0211 83.485 17.3575 83.2065 17.6369C82.928 17.9061 82.5876 18.1131 82.1853 18.258C81.7933 18.4029 81.3858 18.4753 80.9629 18.4753C80.4368 18.4753 79.9829 18.3977 79.6013 18.2424C79.2196 18.0768 78.9256 17.8388 78.7193 17.5283C78.513 17.2178 78.4098 16.8348 78.4098 16.3794C78.4098 15.7998 78.5955 15.3288 78.9669 14.9666C79.3382 14.5939 79.8695 14.3404 80.5606 14.2058L83.4696 13.6158L83.4541 14.9355L81.5973 15.3081C81.2466 15.3806 80.9784 15.4789 80.7927 15.6031C80.6173 15.717 80.5297 15.9084 80.5297 16.1775C80.5297 16.4363 80.6225 16.633 80.8082 16.7675C81.0042 16.9021 81.2363 16.9693 81.5045 16.9693C81.7211 16.9693 81.9326 16.9435 82.1389 16.8917C82.3452 16.84 82.5309 16.7572 82.6959 16.6433C82.861 16.5295 82.9899 16.3742 83.0827 16.1775C83.1756 15.9809 83.222 15.7428 83.222 15.4634V13.3674Z" fill="#FAFAFA"/>
<path d="M86.9235 18.3201V10.5573H88.7648L88.904 12.0788C89.1103 11.5406 89.4095 11.1266 89.8015 10.8368C90.2038 10.547 90.7041 10.4021 91.3024 10.4021C91.4777 10.4021 91.6376 10.4176 91.782 10.4486C91.9265 10.4797 92.0451 10.5211 92.1379 10.5729L91.8904 12.3583C91.7872 12.3169 91.6583 12.2858 91.5035 12.2651C91.3591 12.2444 91.1683 12.2341 90.931 12.2341C90.6216 12.2341 90.3224 12.3117 90.0336 12.467C89.7447 12.6119 89.5075 12.8396 89.3218 13.1501C89.1361 13.4502 89.0433 13.8332 89.0433 14.299V18.3201H86.9235Z" fill="#FAFAFA"/>
<path d="M95.4509 18.4753C94.8113 18.4753 94.2388 18.3149 93.7334 17.994C93.2382 17.6732 92.8462 17.2126 92.5574 16.6123C92.2789 16.0119 92.1396 15.2926 92.1396 14.4542C92.1396 13.5951 92.2892 12.8654 92.5883 12.2651C92.8875 11.6545 93.2898 11.1939 93.7953 10.8834C94.311 10.5625 94.8887 10.4021 95.5283 10.4021C96.2091 10.4021 96.7713 10.5987 97.2148 10.992C97.6584 11.3854 97.9472 11.8925 98.0813 12.5135L97.8802 12.7619V7.15724H100V18.3201H98.0968L97.9575 15.9602L98.2206 16.0844C98.1484 16.5709 97.9833 16.9952 97.7254 17.3575C97.4676 17.7094 97.1426 17.9837 96.7506 18.1803C96.3586 18.377 95.9254 18.4753 95.4509 18.4753ZM96.0698 16.8451C96.4412 16.8451 96.7609 16.752 97.0291 16.5657C97.2973 16.369 97.5037 16.0844 97.6481 15.7118C97.8028 15.3392 97.8802 14.8941 97.8802 14.3766C97.8802 13.8798 97.808 13.4606 97.6635 13.119C97.5191 12.7671 97.3128 12.498 97.0446 12.3117C96.7764 12.1254 96.4618 12.0322 96.1008 12.0322C95.5231 12.0322 95.0692 12.2393 94.7391 12.6533C94.4193 13.0569 94.2594 13.6521 94.2594 14.4387C94.2594 15.2253 94.4193 15.8256 94.7391 16.2397C95.0589 16.6433 95.5025 16.8451 96.0698 16.8451Z" fill="#FAFAFA"/>
<path fill-rule="evenodd" clip-rule="evenodd" d="M3.27 0H22.1885C23.9945 0 25.4585 1.46898 25.4585 3.28105V22.719C25.4585 24.531 23.9945 26 22.1885 26H3.27C1.46403 26 0 24.531 0 22.719V3.28105C0 1.46898 1.46403 0 3.27 0ZM16.3397 17.4713H13.4336C13.2171 17.4713 13.0416 17.6474 13.0416 17.8647V23.992C13.0416 24.2093 13.2171 24.3854 13.4336 24.3854H16.3397C16.5562 24.3854 16.7317 24.2093 16.7317 23.992V17.8647C16.7317 17.6474 16.5562 17.4713 16.3397 17.4713ZM22.7146 12.3065H19.8057C19.5892 12.3065 19.4137 12.4826 19.4137 12.6998V23.992C19.4137 24.2093 19.5892 24.3854 19.8057 24.3854H22.7146C22.9311 24.3854 23.1066 24.2093 23.1066 23.992V12.6998C23.1066 12.4826 22.9311 12.3065 22.7146 12.3065ZM10.0576 19.6449H7.14861C6.93212 19.6449 6.75662 19.821 6.75662 20.0382V23.992C6.75662 24.2093 6.93212 24.3854 7.14861 24.3854H10.0576C10.2741 24.3854 10.4496 24.2093 10.4496 23.992V20.0382C10.4496 19.821 10.2741 19.6449 10.0576 19.6449ZM8.30394 2.79459H6.68441C6.46792 2.79459 6.29243 2.97068 6.29243 3.1879V5.40287H4.08492C3.86843 5.40287 3.69293 5.57896 3.69293 5.79618V7.42118C3.69293 7.6384 3.86843 7.81449 4.08492 7.81449H6.29243V10.0295C6.29243 10.2467 6.46792 10.4228 6.68441 10.4228H8.30394C8.52043 10.4228 8.69593 10.2467 8.69593 10.0295V7.81449H10.9034C11.1199 7.81449 11.2954 7.6384 11.2954 7.42118V5.79618C11.2954 5.57896 11.1199 5.40287 10.9034 5.40287H8.69593V3.1879C8.69593 2.97068 8.52043 2.79459 8.30394 2.79459ZM14.7459 16.4156C15.592 16.4156 16.2778 15.7275 16.2778 14.8786C16.2778 14.6145 16.2114 14.366 16.0945 14.1489L20.4607 9.39696C20.6686 9.46488 20.8904 9.50159 21.1209 9.50159C22.2973 9.50159 23.251 8.54467 23.251 7.36425C23.251 6.18383 22.2973 5.22691 21.1209 5.22691C19.9444 5.22691 18.9907 6.18383 18.9907 7.36425C18.9907 7.77402 19.1057 8.15686 19.3049 8.48209L14.7872 13.3421C14.7769 13.3421 14.7597 13.3416 14.7459 13.3416C14.6972 13.3416 14.6491 13.3438 14.6015 13.3483C14.6015 13.3483 12.7123 11.4075 12.6364 11.3854C11.9814 11.1939 11.686 11.28 11.3315 11.4578C11.221 11.5133 4.23449 19.0135 4.15197 19.1006C4.06945 19.1878 4.03405 19.4638 4.15197 19.588C4.26989 19.7122 4.6455 20.114 4.72254 20.1935C4.84802 20.3229 5.13035 20.2866 5.28587 20.1935C5.4414 20.1003 12.0949 12.8344 12.0949 12.8344L13.3974 14.1489C13.2805 14.366 13.2141 14.6145 13.2141 14.8786C13.2141 15.7275 13.8999 16.4156 14.7459 16.4156Z" fill="#FAFAFA"/>
<path d="M21.91 7.36943C21.91 7.80387 21.559 8.15605 21.126 8.15605C20.6931 8.15605 20.3421 7.80387 20.3421 7.36943C20.3421 6.93499 20.6931 6.5828 21.126 6.5828C21.559 6.5828 21.91 6.93499 21.91 7.36943Z" fill="#FAFAFA"/>
</svg>
