<svg width="16" height="16" viewBox="0 0 16 16" fill="none" xmlns="http://www.w3.org/2000/svg">
<path d="M13.9809 8.31902C13.9184 9.47572 13.5223 10.5896 12.8403 11.5259C12.1583 12.4623 11.2197 13.1811 10.1379 13.5954C9.05617 14.0097 7.87755 14.1018 6.74456 13.8606C5.61157 13.6193 4.57271 13.0551 3.75356 12.236C2.93441 11.4169 2.37004 10.3781 2.12868 9.24517C1.88731 8.11221 1.97929 6.93358 2.39349 5.85177C2.80768 4.76996 3.52636 3.83128 4.46266 3.14921C5.39895 2.46713 6.51277 2.07086 7.66947 2.0083C7.9393 1.99364 8.08054 2.31477 7.9373 2.5433C7.45819 3.30985 7.25304 4.21616 7.35533 5.11432C7.45761 6.01248 7.8613 6.84946 8.5005 7.48866C9.1397 8.12785 9.97667 8.53154 10.8748 8.63382C11.773 8.73611 12.6793 8.53096 13.4459 8.05185C13.675 7.90861 13.9955 8.04919 13.9809 8.31902Z" stroke="white" stroke-width="1.33333" stroke-linecap="round" stroke-linejoin="round"/>
</svg>
